<svg xmlns="http://www.w3.org/2000/svg" xmlns:xlink="http://www.w3.org/1999/xlink" id="Layer_1" x="0px" y="0px" viewBox="0 0 1200 300" xml:space="preserve">
<path fill="#FFFFFF" d="M1197.1,18.5h-60.4v145.3L933.8,13.6v268.2h60.4V136.5l202.9,150.3V18.5z M806.1,18.5h-60.4v263.3h60.4V18.5  z M576.7,98.9c0,14.4-9.1,22.8-19.7,22.8H434.1V76.1H557C567.5,76.1,576.7,84.5,576.7,98.9 M637,98.9c0-44.2-35.8-80.4-80-80.4  H373.7v263.3h60.4V179H557C601.2,179,637,143.2,637,98.9 M261,205.3c0-112-185.4-68.5-185.4-109.9c0-11.2,16.9-26.7,50.2-26.7  c25.6,0,54.1,10.5,76.9,43.5l50.2-31.6c-34.4-51.6-83.6-70.2-127.8-70.2c-53.4,0-109.9,28.8-109.9,85  c0,110.9,185.4,66.7,185.4,109.9c0,10.5-17.6,26.3-55.1,26.3c-30.2,0-64.2-11.6-92.7-50.9L2.9,212.3c40,57.6,94.8,77.6,143.6,77.6  C202.7,289.9,261,262.2,261,205.3"></path>
</svg>